<svg aria-roledescription="stateDiagram" role="graphics-document document" viewBox="0 0 526.6484375 386" style="max-width: 526.6484375px;" class="statediagram" xmlns="http://www.w3.org/2000/svg" width="100%" id="ariesReport3"><style>#ariesReport3{font-family:DejaVu Sans;font-size:16px;fill:#000000;}#ariesReport3 .error-icon{fill:#552222;}#ariesReport3 .error-text{fill:#552222;stroke:#552222;}#ariesReport3 .edge-thickness-normal{stroke-width:2px;}#ariesReport3 .edge-thickness-thick{stroke-width:3.5px;}#ariesReport3 .edge-pattern-solid{stroke-dasharray:0;}#ariesReport3 .edge-pattern-dashed{stroke-dasharray:3;}#ariesReport3 .edge-pattern-dotted{stroke-dasharray:2;}#ariesReport3 .marker{fill:#666;stroke:#666;}#ariesReport3 .marker.cross{stroke:#666;}#ariesReport3 svg{font-family:DejaVu Sans;font-size:16px;}#ariesReport3 defs #statediagram-barbEnd{fill:#000;stroke:#000;}#ariesReport3 g.stateGroup text{fill:#999;stroke:none;font-size:10px;}#ariesReport3 g.stateGroup text{fill:#000000;stroke:none;font-size:10px;}#ariesReport3 g.stateGroup .state-title{font-weight:bolder;fill:#111111;}#ariesReport3 g.stateGroup rect{fill:#eee;stroke:#999;}#ariesReport3 g.stateGroup line{stroke:#666;stroke-width:1;}#ariesReport3 .transition{stroke:#000;stroke-width:1;fill:none;}#ariesReport3 .stateGroup .composit{fill:#ffffff;border-bottom:1px;}#ariesReport3 .stateGroup .alt-composit{fill:#e0e0e0;border-bottom:1px;}#ariesReport3 .state-note{stroke:#999;fill:#666;}#ariesReport3 .state-note text{fill:#fff;stroke:none;font-size:10px;}#ariesReport3 .stateLabel .box{stroke:none;stroke-width:0;fill:#eee;opacity:0.5;}#ariesReport3 .edgeLabel .label rect{fill:#eee;opacity:0.5;}#ariesReport3 .edgeLabel .label text{fill:#000000;}#ariesReport3 .label div .edgeLabel{color:#000000;}#ariesReport3 .stateLabel text{fill:#111111;font-size:10px;font-weight:bold;}#ariesReport3 .node circle.state-start{fill:#222;stroke:#222;}#ariesReport3 .node .fork-join{fill:#222;stroke:#222;}#ariesReport3 .node circle.state-end{fill:hsl(0, 0%, 83.3333333333%);stroke:#ffffff;stroke-width:1.5;}#ariesReport3 .end-state-inner{fill:#ffffff;stroke-width:1.5;}#ariesReport3 .node rect{fill:#eee;stroke:#000;stroke-width:1px;}#ariesReport3 .node polygon{fill:#eee;stroke:#000;stroke-width:1px;}#ariesReport3 #statediagram-barbEnd{fill:#666;}#ariesReport3 .statediagram-cluster rect{fill:#eee;stroke:#000;stroke-width:1px;}#ariesReport3 .cluster-label,#ariesReport3 .nodeLabel{color:#111111;}#ariesReport3 .statediagram-cluster rect.outer{rx:5px;ry:5px;}#ariesReport3 .statediagram-state .divider{stroke:#000;}#ariesReport3 .statediagram-state .title-state{rx:5px;ry:5px;}#ariesReport3 .statediagram-cluster.statediagram-cluster .inner{fill:#ffffff;}#ariesReport3 .statediagram-cluster.statediagram-cluster-alt .inner{fill:#f4f4f4;}#ariesReport3 .statediagram-cluster .inner{rx:0;ry:0;}#ariesReport3 .statediagram-state rect.basic{rx:5px;ry:5px;}#ariesReport3 .statediagram-state rect.divider{stroke-dasharray:10,10;fill:#f4f4f4;}#ariesReport3 .note-edge{stroke-dasharray:5;}#ariesReport3 .statediagram-note rect{fill:#666;stroke:#999;stroke-width:1px;rx:0;ry:0;}#ariesReport3 .statediagram-note rect{fill:#666;stroke:#999;stroke-width:1px;rx:0;ry:0;}#ariesReport3 .statediagram-note text{fill:#fff;}#ariesReport3 .statediagram-note .nodeLabel{color:#fff;}#ariesReport3 .statediagram .edgeLabel{color:red;}#ariesReport3 #dependencyStart,#ariesReport3 #dependencyEnd{fill:#666;stroke:#666;stroke-width:1;}#ariesReport3 .statediagramTitleText{text-anchor:middle;font-size:18px;fill:#000000;}#ariesReport3 :root{--mermaid-font-family:DejaVu Sans;}</style><g><defs><marker orient="auto" markerUnits="strokeWidth" markerHeight="14" markerWidth="20" refY="7" refX="19" id="ariesReport3_statediagram-barbEnd"><path d="M 19,7 L9,13 L14,7 L9,1 Z"></path></marker></defs><g class="root"><g class="clusters"></g><g class="edgePaths"><path marker-end="url(#ariesReport3_statediagram-barbEnd)" style="fill:none" class="edge-thickness-normal transition" id="edge0" d="M402.051,22L402.051,26.167C402.051,30.333,402.051,38.667,402.051,47C402.051,55.333,402.051,63.667,402.051,67.833L402.051,72"></path><path marker-end="url(#ariesReport3_statediagram-barbEnd)" style="fill:none" class="edge-thickness-normal transition" id="edge1" d="M365.045,106L352.528,111.75C340.012,117.5,314.979,129,302.462,140.5C289.945,152,289.945,163.5,289.945,169.25L289.945,175"></path><path marker-end="url(#ariesReport3_statediagram-barbEnd)" style="fill:none" class="edge-thickness-normal transition" id="edge2" d="M383.177,106L376.794,111.75C370.41,117.5,357.642,129,364.026,140.5C370.41,152,395.945,163.5,408.712,169.25L421.479,175"></path><path marker-end="url(#ariesReport3_statediagram-barbEnd)" style="fill:none" class="edge-thickness-normal transition" id="edge3" d="M459.227,175L459.227,169.25C459.227,163.5,459.227,152,452.843,140.5C446.459,129,433.692,117.5,427.308,111.75L420.924,106"></path><path marker-end="url(#ariesReport3_statediagram-barbEnd)" style="fill:none" class="edge-thickness-normal transition" id="edge4" d="M243.273,204.519L224.955,209.432C206.637,214.346,170,224.173,151.682,233.253C133.363,242.333,133.363,250.667,133.363,254.833L133.363,259"></path><path marker-end="url(#ariesReport3_statediagram-barbEnd)" style="fill:none" class="edge-thickness-normal transition" id="edge5" d="M97.885,293L89.189,297.167C80.494,301.333,63.102,309.667,54.407,318.083C45.711,326.5,45.711,335,45.711,339.25L45.711,343.5"></path><path marker-end="url(#ariesReport3_statediagram-barbEnd)" style="fill:none" class="edge-thickness-normal transition" id="edge6" d="M165.161,293L172.954,297.167C180.748,301.333,196.335,309.667,204.128,318C211.922,326.333,211.922,334.667,211.922,338.833L211.922,343"></path><path marker-end="url(#ariesReport3_statediagram-barbEnd)" style="fill:none" class="edge-thickness-normal transition" id="edge7" d="M308.656,209L313.242,213.167C317.828,217.333,327,225.667,331.586,234C336.172,242.333,336.172,250.667,336.172,254.833L336.172,259"></path><path marker-end="url(#ariesReport3_statediagram-barbEnd)" style="fill:none" class="edge-thickness-normal transition" id="edge8" d="M336.617,208.758L348.334,212.965C360.051,217.172,383.484,225.586,395.201,236.793C406.918,248,406.918,262,406.918,276C406.918,290,406.918,304,405.918,315.25C404.918,326.5,402.918,335,401.918,339.25L400.918,343.5"></path><path marker-end="url(#ariesReport3_statediagram-barbEnd)" style="fill:none" class="edge-thickness-normal transition" id="edge9" d="M177.949,286.456L200.368,291.713C222.786,296.971,267.624,307.485,298.488,316.993C329.352,326.5,346.244,335,354.689,339.25L363.135,343.5"></path></g><g class="edgeLabels"><g class="edgeLabel"><g transform="translate(0, 0)" class="label"><rect height="0" width="0" ry="0" rx="0"></rect><text style=""><tspan class="row" x="0" dy="1em" xml:space="preserve"></tspan></text></g></g><g class="edgeLabel"><g transform="translate(0, 0)" class="label"><rect height="0" width="0" ry="0" rx="0"></rect><text style=""><tspan class="row" x="0" dy="1em" xml:space="preserve"></tspan></text></g></g><g transform="translate(344.875, 140.5)" class="edgeLabel"><g transform="translate(-34.9296875, -9.5)" class="label"><rect height="19.000770568847656" width="69.7997055053711" ry="0" rx="0"></rect><text style=""><tspan class="row" x="0" dy="1em" xml:space="preserve">approval</tspan></text></g></g><g transform="translate(459.2265625, 140.5)" class="edgeLabel"><g transform="translate(-59.421875, -9.5)" class="label"><rect height="19.000770568847656" width="118.73918914794922" ry="0" rx="0"></rect><text style=""><tspan class="row" x="0" dy="1em" xml:space="preserve">exact approval</tspan></text></g></g><g class="edgeLabel"><g transform="translate(0, 0)" class="label"><rect height="0" width="0" ry="0" rx="0"></rect><text style=""><tspan class="row" x="0" dy="1em" xml:space="preserve"></tspan></text></g></g><g class="edgeLabel"><g transform="translate(0, 0)" class="label"><rect height="0" width="0" ry="0" rx="0"></rect><text style=""><tspan class="row" x="0" dy="1em" xml:space="preserve"></tspan></text></g></g><g class="edgeLabel"><g transform="translate(0, 0)" class="label"><rect height="0" width="0" ry="0" rx="0"></rect><text style=""><tspan class="row" x="0" dy="1em" xml:space="preserve"></tspan></text></g></g><g class="edgeLabel"><g transform="translate(0, 0)" class="label"><rect height="0" width="0" ry="0" rx="0"></rect><text style=""><tspan class="row" x="0" dy="1em" xml:space="preserve"></tspan></text></g></g><g class="edgeLabel"><g transform="translate(0, 0)" class="label"><rect height="0" width="0" ry="0" rx="0"></rect><text style=""><tspan class="row" x="0" dy="1em" xml:space="preserve"></tspan></text></g></g><g class="edgeLabel"><g transform="translate(0, 0)" class="label"><rect height="0" width="0" ry="0" rx="0"></rect><text style=""><tspan class="row" x="0" dy="1em" xml:space="preserve"></tspan></text></g></g></g><g class="nodes"><g transform="translate(402.05078125, 15)" data-id="root_start" data-node="true" id="state-root_start-0" class="node default"><circle height="14" width="14" r="7" class="state-start"></circle></g><g transform="translate(402.05078125, 89)" data-id="planned" data-node="true" id="state-planned-3" class="node  statediagram-state undefined"><rect height="34" width="79.6875" y="-17" x="-39.84375" style="" class="basic label-container"></rect><g transform="translate(-32.34375, -9.5)" style="" class="label"><rect></rect><text style=""><tspan class="row" x="0" dy="1em" xml:space="preserve">planned</tspan></text></g></g><g transform="translate(289.9453125, 192)" data-id="executing" data-node="true" id="state-executing-8" class="node  statediagram-state undefined"><rect height="34" width="93.34375" y="-17" x="-46.671875" style="" class="basic label-container"></rect><g transform="translate(-39.171875, -9.5)" style="" class="label"><rect></rect><text style=""><tspan class="row" x="0" dy="1em" xml:space="preserve">executing</tspan></text></g></g><g transform="translate(459.2265625, 192)" data-id="proposed" data-node="true" id="state-proposed-3" class="node  statediagram-state undefined"><rect height="34" width="89.453125" y="-17" x="-44.7265625" style="" class="basic label-container"></rect><g transform="translate(-37.2265625, -9.5)" style="" class="label"><rect></rect><text style=""><tspan class="row" x="0" dy="1em" xml:space="preserve">proposed</tspan></text></g></g><g transform="translate(133.36328125, 276)" data-id="observed" data-node="true" id="state-observed-9" class="node  statediagram-state undefined"><rect height="34" width="89.171875" y="-17" x="-44.5859375" style="" class="basic label-container"></rect><g transform="translate(-37.0859375, -9.5)" style="" class="label"><rect></rect><text style=""><tspan class="row" x="0" dy="1em" xml:space="preserve">observed</tspan></text></g></g><g transform="translate(45.7109375, 360.5)" data-id="verified" data-node="true" id="state-verified-5" class="node  statediagram-state undefined"><rect height="34" width="75.421875" y="-17" x="-37.7109375" style="" class="basic label-container"></rect><g transform="translate(-30.2109375, -9.5)" style="" class="label"><rect></rect><text style=""><tspan class="row" x="0" dy="1em" xml:space="preserve">verified</tspan></text></g></g><g transform="translate(211.921875, 360.5)" data-id="verification_failed" data-node="true" id="state-verification_failed-6" class="node  statediagram-state undefined"><rect height="35" width="157" y="-17.5" x="-78.5" style="" class="basic label-container"></rect><g transform="translate(-71, -10)" style="" class="label"><rect></rect><text style=""><tspan class="row" x="0" dy="1em" xml:space="preserve">verification_failed</tspan></text></g></g><g transform="translate(336.171875, 276)" data-id="failed" data-node="true" id="state-failed-7" class="node  statediagram-state undefined"><rect height="34" width="59.328125" y="-17" x="-29.6640625" style="" class="basic label-container"></rect><g transform="translate(-22.1640625, -9.5)" style="" class="label"><rect></rect><text style=""><tspan class="row" x="0" dy="1em" xml:space="preserve">failed</tspan></text></g></g><g transform="translate(396.91796875, 360.5)" data-id="interrupted" data-node="true" id="state-interrupted-9" class="node  statediagram-state undefined"><rect height="34" width="105.15625" y="-17" x="-52.578125" style="" class="basic label-container"></rect><g transform="translate(-45.078125, -9.5)" style="" class="label"><rect></rect><text style=""><tspan class="row" x="0" dy="1em" xml:space="preserve">interrupted</tspan></text></g></g></g></g></g></svg>