<svg aria-roledescription="flowchart-v2" role="graphics-document document" viewBox="-8 -8 1664.734375 295.078125" style="max-width: 1664.734375px;" xmlns="http://www.w3.org/2000/svg" width="100%" id="ariesReport4"><style>#ariesReport4{font-family:DejaVu Sans;font-size:16px;fill:#000000;}#ariesReport4 .error-icon{fill:#552222;}#ariesReport4 .error-text{fill:#552222;stroke:#552222;}#ariesReport4 .edge-thickness-normal{stroke-width:2px;}#ariesReport4 .edge-thickness-thick{stroke-width:3.5px;}#ariesReport4 .edge-pattern-solid{stroke-dasharray:0;}#ariesReport4 .edge-pattern-dashed{stroke-dasharray:3;}#ariesReport4 .edge-pattern-dotted{stroke-dasharray:2;}#ariesReport4 .marker{fill:#666;stroke:#666;}#ariesReport4 .marker.cross{stroke:#666;}#ariesReport4 svg{font-family:DejaVu Sans;font-size:16px;}#ariesReport4 .label{font-family:DejaVu Sans;color:#000000;}#ariesReport4 .cluster-label text{fill:#333;}#ariesReport4 .cluster-label span,#ariesReport4 p{color:#333;}#ariesReport4 .label text,#ariesReport4 span,#ariesReport4 p{fill:#000000;color:#000000;}#ariesReport4 .node rect,#ariesReport4 .node circle,#ariesReport4 .node ellipse,#ariesReport4 .node polygon,#ariesReport4 .node path{fill:#eee;stroke:#999;stroke-width:1px;}#ariesReport4 .flowchart-label text{text-anchor:middle;}#ariesReport4 .node .katex path{fill:#000;stroke:#000;stroke-width:1px;}#ariesReport4 .node .label{text-align:center;}#ariesReport4 .node.clickable{cursor:pointer;}#ariesReport4 .arrowheadPath{fill:#333333;}#ariesReport4 .edgePath .path{stroke:#666;stroke-width:2.0px;}#ariesReport4 .flowchart-link{stroke:#666;fill:none;}#ariesReport4 .edgeLabel{background-color:white;text-align:center;}#ariesReport4 .edgeLabel rect{opacity:0.5;background-color:white;fill:white;}#ariesReport4 .labelBkg{background-color:rgba(255, 255, 255, 0.5);}#ariesReport4 .cluster rect{fill:hsl(0, 0%, 98.9215686275%);stroke:#707070;stroke-width:1px;}#ariesReport4 .cluster text{fill:#333;}#ariesReport4 .cluster span,#ariesReport4 p{color:#333;}#ariesReport4 div.mermaidTooltip{position:absolute;text-align:center;max-width:200px;padding:2px;font-family:DejaVu Sans;font-size:12px;background:hsl(-160, 0%, 93.3333333333%);border:1px solid #707070;border-radius:2px;pointer-events:none;z-index:100;}#ariesReport4 .flowchartTitleText{text-anchor:middle;font-size:18px;fill:#000000;}#ariesReport4 :root{--mermaid-font-family:DejaVu Sans;}</style><g><marker orient="auto" markerHeight="12" markerWidth="12" markerUnits="userSpaceOnUse" refY="5" refX="6" viewBox="0 0 10 10" class="marker flowchart" id="ariesReport4_flowchart-pointEnd"><path style="stroke-width: 1; stroke-dasharray: 1, 0;" class="arrowMarkerPath" d="M 0 0 L 10 5 L 0 10 z"></path></marker><marker orient="auto" markerHeight="12" markerWidth="12" markerUnits="userSpaceOnUse" refY="5" refX="4.5" viewBox="0 0 10 10" class="marker flowchart" id="ariesReport4_flowchart-pointStart"><path style="stroke-width: 1; stroke-dasharray: 1, 0;" class="arrowMarkerPath" d="M 0 5 L 10 10 L 10 0 z"></path></marker><marker orient="auto" markerHeight="11" markerWidth="11" markerUnits="userSpaceOnUse" refY="5" refX="11" viewBox="0 0 10 10" class="marker flowchart" id="ariesReport4_flowchart-circleEnd"><circle style="stroke-width: 1; stroke-dasharray: 1, 0;" class="arrowMarkerPath" r="5" cy="5" cx="5"></circle></marker><marker orient="auto" markerHeight="11" markerWidth="11" markerUnits="userSpaceOnUse" refY="5" refX="-1" viewBox="0 0 10 10" class="marker flowchart" id="ariesReport4_flowchart-circleStart"><circle style="stroke-width: 1; stroke-dasharray: 1, 0;" class="arrowMarkerPath" r="5" cy="5" cx="5"></circle></marker><marker orient="auto" markerHeight="11" markerWidth="11" markerUnits="userSpaceOnUse" refY="5.2" refX="12" viewBox="0 0 11 11" class="marker cross flowchart" id="ariesReport4_flowchart-crossEnd"><path style="stroke-width: 2; stroke-dasharray: 1, 0;" class="arrowMarkerPath" d="M 1,1 l 9,9 M 10,1 l -9,9"></path></marker><marker orient="auto" markerHeight="11" markerWidth="11" markerUnits="userSpaceOnUse" refY="5.2" refX="-1" viewBox="0 0 11 11" class="marker cross flowchart" id="ariesReport4_flowchart-crossStart"><path style="stroke-width: 2; stroke-dasharray: 1, 0;" class="arrowMarkerPath" d="M 1,1 l 9,9 M 10,1 l -9,9"></path></marker><g class="root"><g class="clusters"></g><g class="edgePaths"><path marker-end="url(#ariesReport4_flowchart-pointEnd)" style="fill:none;" class="edge-thickness-normal edge-pattern-solid flowchart-link LS-A LE-B" id="L-A-B-0" d="M184.094,139.539L188.26,139.539C192.427,139.539,200.76,139.539,208.21,139.539C215.66,139.539,222.227,139.539,225.51,139.539L228.794,139.539"></path><path marker-end="url(#ariesReport4_flowchart-pointEnd)" style="fill:none;" class="edge-thickness-normal edge-pattern-solid flowchart-link LS-B LE-C" id="L-B-C-0" d="M471.453,139.539L475.62,139.539C479.786,139.539,488.12,139.539,495.653,139.605C503.187,139.671,509.92,139.803,513.287,139.869L516.654,139.935"></path><path marker-end="url(#ariesReport4_flowchart-pointEnd)" style="fill:none;" class="edge-thickness-normal edge-pattern-solid flowchart-link LS-C LE-D" id="L-C-D-0" d="M801.031,140.039L806.974,139.956C812.917,139.872,824.802,139.706,837.745,141.059C850.689,142.412,864.69,145.285,871.69,146.722L878.691,148.158"></path><path marker-end="url(#ariesReport4_flowchart-pointEnd)" style="fill:none;" class="edge-thickness-normal edge-pattern-solid flowchart-link LS-D LE-C" id="L-D-C-0" d="M883.883,170.44L876.017,171.498C868.151,172.557,852.419,174.673,835.408,173.852C818.396,173.031,800.105,169.273,790.959,167.394L781.814,165.515"></path><path marker-end="url(#ariesReport4_flowchart-pointEnd)" style="fill:none;" class="edge-thickness-normal edge-pattern-solid flowchart-link LS-C LE-E" id="L-C-E-0" d="M764.852,103.859L776.824,99.556C788.797,95.253,812.742,86.646,829.858,82.342C846.973,78.039,857.258,78.039,862.401,78.039L867.544,78.039"></path><path marker-end="url(#ariesReport4_flowchart-pointEnd)" style="fill:none;" class="edge-thickness-normal edge-pattern-solid flowchart-link LS-E LE-F" id="L-E-F-0" d="M1019.828,78.039L1029.525,78.039C1039.221,78.039,1058.615,78.039,1080.89,78.039C1103.166,78.039,1128.323,78.039,1140.902,78.039L1153.481,78.039"></path><path marker-end="url(#ariesReport4_flowchart-pointEnd)" style="fill:none;" class="edge-thickness-normal edge-pattern-solid flowchart-link LS-F LE-G" id="L-F-G-0" d="M1398.891,78.039L1406.823,78.039C1414.755,78.039,1430.62,78.039,1441.835,78.039C1453.051,78.039,1459.618,78.039,1462.901,78.039L1466.184,78.039"></path><path marker-end="url(#ariesReport4_flowchart-pointEnd)" style="fill:none;" class="edge-thickness-normal edge-pattern-solid flowchart-link LS-D LE-H" id="L-D-H-0" d="M1008.789,162.039L1020.326,162.039C1031.862,162.039,1054.935,162.039,1075.285,162.039C1095.634,162.039,1113.261,162.039,1122.074,162.039L1130.888,162.039"></path></g><g class="edgeLabels"><g class="edgeLabel"><g transform="translate(0, 0)" class="label"><rect height="0" width="0" ry="0" rx="0"></rect><text style=""><tspan class="row" x="0" dy="1em" xml:space="preserve"></tspan></text></g></g><g class="edgeLabel"><g transform="translate(0, 0)" class="label"><rect height="0" width="0" ry="0" rx="0"></rect><text style=""><tspan class="row" x="0" dy="1em" xml:space="preserve"></tspan></text></g></g><g transform="translate(836.6875, 139.5390625)" class="edgeLabel"><g transform="translate(-10.9375, -9.5)" class="label"><rect height="18.610912322998047" width="22.158079147338867" ry="0" rx="0"></rect><text style=""><tspan class="row" x="0" dy="1em" xml:space="preserve">Не</tspan></text></g></g><g class="edgeLabel"><g transform="translate(0, 0)" class="label"><rect height="0" width="0" ry="0" rx="0"></rect><text style=""><tspan class="row" x="0" dy="1em" xml:space="preserve"></tspan></text></g></g><g transform="translate(836.6875, 78.0390625)" class="edgeLabel"><g transform="translate(-11.15625, -9.5)" class="label"><rect height="18.610912322998047" width="22.28550910949707" ry="0" rx="0"></rect><text style=""><tspan class="row" x="0" dy="1em" xml:space="preserve">Да</tspan></text></g></g><g class="edgeLabel"><g transform="translate(0, 0)" class="label"><rect height="0" width="0" ry="0" rx="0"></rect><text style=""><tspan class="row" x="0" dy="1em" xml:space="preserve"></tspan></text></g></g><g class="edgeLabel"><g transform="translate(0, 0)" class="label"><rect height="0" width="0" ry="0" rx="0"></rect><text style=""><tspan class="row" x="0" dy="1em" xml:space="preserve"></tspan></text></g></g><g transform="translate(1078.0078125, 162.0390625)" class="edgeLabel"><g transform="translate(-33.1796875, -9.5)" class="label"><rect height="18.610912322998047" width="67.42410278320312" ry="0" rx="0"></rect><text style=""><tspan class="row" x="0" dy="1em" xml:space="preserve">Timeout</tspan></text></g></g></g><g class="nodes"><g transform="translate(92.046875, 139.5390625)" data-id="A" data-node="true" id="flowchart-A-62" class="node default default flowchart-label"><rect height="34" width="184.09375" y="-17" x="-92.046875" ry="0" rx="0" style="" class="basic label-container"></rect><g transform="translate(0, -9.5)" style="" class="label"><rect></rect><text style=""><tspan class="row" x="0" dy="1em" xml:space="preserve">Acquire update lease</tspan></text></g></g><g transform="translate(352.7734375, 139.5390625)" data-id="B" data-node="true" id="flowchart-B-63" class="node default default flowchart-label"><rect height="34" width="237.359375" y="-17" x="-118.6796875" ry="0" rx="0" style="" class="basic label-container"></rect><g transform="translate(0, -9.5)" style="" class="label"><rect></rect><text style=""><tspan class="row" x="0" dy="1em" xml:space="preserve">Задржи нови извршувања</tspan></text></g></g><g transform="translate(660.9921875, 139.5390625)" data-id="C" data-node="true" id="flowchart-C-65" class="node default default flowchart-label"><polygon style="" transform="translate(-139.5390625,139.5390625)" class="label-container" points="139.5390625,0 279.078125,-139.5390625 139.5390625,-279.078125 0,-139.5390625"></polygon><g transform="translate(0, -9.5)" style="" class="label"><rect></rect><text style=""><tspan class="row" x="0" dy="1em" xml:space="preserve">Активна работа завршена?</tspan></text></g></g><g transform="translate(946.3359375, 162.0390625)" data-id="D" data-node="true" id="flowchart-D-67" class="node default default flowchart-label"><rect height="34" width="124.90625" y="-17" x="-62.453125" ry="0" rx="0" style="" class="basic label-container"></rect><g transform="translate(0, -9.5)" style="" class="label"><rect></rect><text style=""><tspan class="row" x="0" dy="1em" xml:space="preserve">Bounded wait</tspan></text></g></g><g transform="translate(946.3359375, 78.0390625)" data-id="E" data-node="true" id="flowchart-E-71" class="node default default flowchart-label"><rect height="34" width="146.984375" y="-17" x="-73.4921875" ry="0" rx="0" style="" class="basic label-container"></rect><g transform="translate(0, -9.5)" style="" class="label"><rect></rect><text style=""><tspan class="row" x="0" dy="1em" xml:space="preserve">Рестарт на core</tspan></text></g></g><g transform="translate(1278.8359375, 78.0390625)" data-id="F" data-node="true" id="flowchart-F-73" class="node default default flowchart-label"><rect height="34" width="240.109375" y="-17" x="-120.0546875" ry="0" rx="0" style="" class="basic label-container"></rect><g transform="translate(0, -9.5)" style="" class="label"><rect></rect><text style=""><tspan class="row" x="0" dy="1em" xml:space="preserve">Реален API readiness check</tspan></text></g></g><g transform="translate(1560.109375, 78.0390625)" data-id="G" data-node="true" id="flowchart-G-75" class="node default default flowchart-label"><rect height="34" width="177.25" y="-17" x="-88.625" ry="0" rx="0" style="" class="basic label-container"></rect><g transform="translate(0, -9.5)" style="" class="label"><rect></rect><text style=""><tspan class="row" x="0" dy="1em" xml:space="preserve">Queue продолжува</tspan></text></g></g><g transform="translate(1278.8359375, 162.0390625)" data-id="H" data-node="true" id="flowchart-H-77" class="node default default flowchart-label"><rect height="34" width="285.296875" y="-17" x="-142.6484375" ry="0" rx="0" style="" class="basic label-container"></rect><g transform="translate(0, -9.5)" style="" class="label"><rect></rect><text style=""><tspan class="row" x="0" dy="1em" xml:space="preserve">Откажи update / ослободи lease</tspan></text></g></g></g></g></g></svg>